<svg width="87" height="64" viewBox="0 0 87 64" fill="none" xmlns="http://www.w3.org/2000/svg">
<path d="M53.2923 0C52.4595 0.0723409 51.5906 0.144682 50.7578 0.253193C47.2045 0.650067 43.7484 1.67118 40.5478 3.26981C37.2485 4.89024 34.2491 7.06397 31.679 9.6973C31.5709 9.84198 31.3545 9.91432 31.1707 9.87815C29.3859 9.61197 27.579 9.52714 25.7773 9.62496C22.1022 9.80614 18.5037 10.7456 15.2068 12.3848C8.83277 15.5822 4.34428 20.5593 1.73771 27.2436C0.786715 29.7205 0.224819 32.3305 0.0721043 34.9804C0.0721043 35.1613 0.0360521 35.306 0 35.4507V38.2466C0.0721043 38.9737 0.180261 39.6645 0.252365 40.3915C0.612886 43.3322 1.4493 46.1643 2.78683 48.8193C5.75753 54.7729 10.3181 59.1315 16.4362 61.8189C19.23 63.0547 22.221 63.7811 25.2689 63.9638C25.3843 63.9638 25.4853 63.9783 25.579 64H56.4973C57.1571 63.9385 57.8024 63.8734 58.4694 63.783C61.9984 63.3855 65.4295 62.3642 68.6036 60.7664C74.0246 58.1118 78.5829 53.9675 81.7482 48.8156C83.9159 45.4172 85.3685 41.6101 86.0168 37.6281C86.1971 36.3983 86.3052 35.1251 86.453 33.8881C86.453 33.7072 86.4891 33.5626 86.5251 33.4179V30.5459C86.453 29.714 86.3449 28.911 86.3449 28.1515C85.949 24.6096 84.931 21.166 83.3381 17.9803C80.6531 12.5463 76.5009 7.97816 71.3544 4.7962C67.9846 2.64765 64.2179 1.20222 60.2792 0.546173C58.9741 0.32915 57.7087 0.220639 56.4036 0.0759576C56.2233 0.0759576 56.0791 0.0397872 55.8988 0.00361678L53.2923 0ZM54.6226 6.12366C62.2873 6.14174 68.7911 9.11134 74.0727 15.0035C77.0632 18.4071 79.0768 22.5613 79.8988 27.0229C80.4395 29.7864 80.5513 32.6185 80.1511 35.4145C79.4661 40.283 77.6203 44.638 74.4693 48.4539C70.808 52.9635 65.7261 56.0888 60.0593 57.3157C57.0281 57.9814 53.9035 58.1039 50.8299 57.6774C46.8822 57.171 43.2626 55.8653 40.0035 53.5033C39.1388 52.8827 38.3283 52.1893 37.5807 51.4308C33.1608 47.0722 28.784 42.6775 24.364 38.319C23.2789 37.2339 23.2068 36.033 23.7151 34.9407C23.9809 34.3575 24.4274 33.8763 24.9881 33.5686C25.5488 33.2609 26.1936 33.1433 26.8264 33.2334C27.5835 33.3057 28.1675 33.7434 28.7083 34.2896C32.6921 38.319 36.6398 42.2796 40.6199 46.3126C43.6083 49.3702 47.5369 51.3275 51.7709 51.8684C58.7938 52.8125 64.7677 50.635 69.5085 45.365C72.079 42.4967 73.6365 39.046 74.289 35.1975C75.2264 29.4572 73.8925 24.2993 70.3413 19.7599C67.194 15.7269 63.066 13.2203 58.0692 12.3124C52.9642 11.4082 48.1512 12.3848 43.7709 15.1844C43.6627 15.2567 43.4104 15.2929 43.2986 15.2205C41.7061 14.0385 40.0094 13.0045 38.2297 12.1316C38.2297 12.1316 38.1936 12.0954 38.1576 12.0231C39.5481 10.8615 41.0661 9.86276 42.6821 9.04623C45.6237 7.44414 48.8671 6.47814 52.2035 6.21047C53.0072 6.14948 53.813 6.12052 54.619 6.12366H54.6226ZM27.2049 15.7558C32.4505 15.669 37.2671 17.6548 41.5609 21.6516C44.6398 24.5525 47.4626 27.5691 50.4297 30.5857C51.2625 31.4177 51.4428 32.4738 51.0462 33.5987C50.6497 34.7236 49.7411 35.2698 48.5839 35.4507C48.1653 35.5079 47.7391 35.4621 47.3422 35.3171C46.9452 35.1722 46.5894 34.9325 46.3054 34.6187C43.4789 31.783 40.656 28.987 37.8692 26.1187C35.5871 23.7568 32.8723 22.4112 29.6853 21.8289C22.6263 20.5593 15.4952 24.6646 12.9607 31.3815C9.70163 39.9177 14.8427 49.5788 23.7115 51.6152C25.4492 52.0131 27.2987 52.0131 29.1085 51.9769C29.6132 51.9408 29.9016 52.1216 30.2622 52.4472C32.0035 54.158 33.8494 55.8653 35.6592 57.5689C35.7673 57.6774 35.9115 57.7859 36.0197 57.8944C35.8034 57.8944 35.6592 57.9306 35.515 57.9306H27.223C22.4388 57.9296 17.798 56.292 14.0665 53.2881C10.335 50.2842 7.73603 46.0936 6.69849 41.4079C4.34428 30.7666 10.4263 19.9769 20.8526 16.8193C22.9093 16.1653 25.048 15.8073 27.2049 15.7558Z" fill="#ECD5A3"/>
</svg>
