<svg width="43" height="65" viewBox="0 0 43 65" fill="none" xmlns="http://www.w3.org/2000/svg">
<path d="M0 11.5314C0 5.50869 4.85522 0.626343 10.8444 0.626343H31.8222C37.8114 0.626343 42.6667 5.50869 42.6667 11.5314C42.6667 17.5541 37.8114 22.4364 31.8222 22.4364H10.8444C4.85522 22.4364 0 17.5541 0 11.5314Z" fill="#ECD5A3"/>
<path d="M21.3333 22.0789H11.0222C4.93482 22.0789 0 27.0412 0 33.1627C0 39.2841 4.93482 44.2465 11.0222 44.2465H21.3333V22.0789Z" fill="#ECD5A3"/>
<path d="M21.3333 22.4364L31.8222 22.4364C37.8114 22.4364 42.6667 17.5541 42.6667 11.5314C42.6667 5.50869 37.8114 0.626343 31.8222 0.626343L21.3333 0.626345L21.3333 22.4364Z" fill="#ECD5A3"/>
<path d="M42.6667 33.1627C42.6667 39.0866 37.891 43.8889 32 43.8889C26.109 43.8889 21.3333 39.0866 21.3333 33.1627C21.3333 27.2387 26.109 22.4364 32 22.4364C37.891 22.4364 42.6667 27.2387 42.6667 33.1627Z" fill="#ECD5A3"/>
<path d="M21.3333 53.9001C21.3333 59.824 16.5577 64.6263 10.6667 64.6263C4.77563 64.6263 0 59.824 0 53.9001C0 47.9761 4.77563 43.1738 10.6667 43.1738C16.5577 43.1738 21.3333 47.9761 21.3333 53.9001Z" fill="#ECD5A3"/>
<path d="M11.0222 43.1738H21.3333L21.3333 53.9001H0.00555556C0.193255 47.9441 5.05371 43.1738 11.0222 43.1738Z" fill="#ECD5A3"/>
</svg>
