<svg width="239" height="72" viewBox="0 0 239 72" fill="none" xmlns="http://www.w3.org/2000/svg">
<g clip-path="url(#clip0_283_1691)">
<path d="M39.4062 71.7798C32.086 71.7798 25.4144 70.3436 19.3915 67.4711C13.3685 64.5986 8.59646 60.4752 5.07534 55.1009C1.64689 49.6339 -0.0673357 43.1939 -0.0673357 35.7811C-0.0673357 28.4609 1.64689 22.0673 5.07534 16.6003C8.59646 11.1333 13.2758 6.96353 19.1135 4.09105C24.9511 1.21856 31.252 -0.217687 38.0163 -0.217687C44.7805 -0.217687 50.6645 1.07956 55.6682 3.67407C60.7645 6.26857 64.61 9.74336 67.2045 14.0984C69.8916 18.3608 71.2352 22.9939 71.2352 27.9976H18.5575C18.3722 29.1095 18.2332 30.2214 18.1405 31.3333C18.0479 32.3526 18.0015 33.4182 18.0015 34.5301C18.0015 40.5531 19.0208 46.0664 21.0593 51.0701C23.0979 56.0738 26.1094 60.0582 30.0938 63.0234C34.0782 65.8959 38.8966 67.3321 44.5489 67.3321C51.1278 67.3321 56.7801 65.3399 61.5058 61.3555C66.3242 57.3711 69.938 51.4408 72.3472 43.5646H74.71C72.1155 52.5527 67.8994 59.5023 62.0618 64.4133C56.3168 69.3243 48.765 71.7798 39.4062 71.7798ZM53.7223 25.3567C53.7223 18.3145 52.3787 12.7548 49.6916 8.67776C47.0044 4.50802 43.02 2.42315 37.7383 2.42315C32.7346 2.42315 28.5649 4.36903 25.2291 8.26079C21.986 12.1525 19.8084 17.8512 18.6965 25.3567H53.7223Z" fill="#FDFDFD"/>
<path d="M84.5363 14.3764C83.6097 12.2452 82.6367 10.2993 81.6175 8.53877C80.5982 6.68555 79.3936 4.69334 78.0037 2.56214H98.8524C99.223 4.60068 99.6863 6.50023 100.242 8.26079C100.891 9.92868 101.725 11.8746 102.744 14.0984L124.844 64.8303L141.245 27.1636C142.635 23.8278 143.052 21.187 142.496 19.2411C142.032 17.2952 141.013 15.303 139.438 13.2645C138.697 12.6158 138.141 12.0135 137.77 11.4576C137.399 10.9016 137.121 10.2993 136.936 9.6507C136.009 7.14885 136.519 5.24931 138.465 3.95205C140.503 2.6548 143.191 2.1915 146.526 2.56214C147.638 5.80527 148.148 9.23372 148.055 12.8475C148.055 16.3686 147.221 20.0287 145.553 23.8278L130.264 58.8536C130.264 58.9463 130.218 59.039 130.125 59.1316C129.106 61.6335 128.411 63.533 128.041 64.8303C127.67 66.0349 127.577 67.4248 127.763 69H108.026L84.5363 14.3764Z" fill="#FDFDFD"/>
<path d="M197.952 71.7798C189.891 71.7798 182.709 70.3436 176.408 67.4711C170.2 64.5059 165.289 60.3362 161.675 54.9619C158.154 49.4949 156.394 43.1013 156.394 35.7811C156.394 28.4609 158.154 22.1136 161.675 16.7393C165.289 11.2723 170.2 7.10252 176.408 4.23004C182.709 1.26489 189.891 -0.217687 197.952 -0.217687C205.921 -0.217687 213.056 1.26489 219.357 4.23004C225.658 7.10252 230.569 11.2723 234.09 16.7393C237.704 22.1136 239.51 28.4609 239.51 35.7811C239.51 43.1013 237.704 49.4949 234.09 54.9619C230.569 60.3362 225.658 64.5059 219.357 67.4711C213.056 70.3436 205.921 71.7798 197.952 71.7798ZM197.952 69.139C203.048 69.139 207.311 67.8417 210.739 65.2472C214.26 62.6527 216.901 58.9 218.662 53.9889C220.422 48.9852 221.303 42.916 221.303 35.7811C221.303 28.7388 220.422 22.7622 218.662 17.8512C216.901 12.8475 214.26 9.0484 210.739 6.4539C207.311 3.76673 203.048 2.42315 197.952 2.42315C192.763 2.42315 188.454 3.76673 185.026 6.4539C181.597 9.0484 178.957 12.8475 177.103 17.8512C175.343 22.7622 174.462 28.7388 174.462 35.7811C174.462 42.916 175.343 48.9852 177.103 53.9889C178.957 58.9 181.597 62.6527 185.026 65.2472C188.454 67.8417 192.763 69.139 197.952 69.139Z" fill="#FDFDFD"/>
<path d="M205.977 36.4819L205.617 36.657C202.029 38.4055 199.157 41.3404 197.488 44.9639V44.9639V44.9639C195.819 41.3404 192.947 38.4055 189.359 36.657L188.999 36.4819L189.144 36.4159C192.858 34.7192 195.825 31.7268 197.488 28V28V28C199.151 31.7268 202.118 34.7192 205.832 36.4159L205.977 36.4819Z" fill="#ECD5A3"/>
</g>
<defs>
<clipPath id="clip0_283_1691">
<rect width="239" height="72" fill="white"/>
</clipPath>
</defs>
</svg>
