<svg width="14" height="14" viewBox="0 0 14 14" fill="none" xmlns="http://www.w3.org/2000/svg">
<path d="M1.78195 3.53559C1.42995 3.53559 1.12595 3.41292 0.869953 3.16759C0.62462 2.91159 0.501953 2.60759 0.501953 2.25559C0.501953 1.90359 0.62462 1.60492 0.869953 1.35959C1.12595 1.10359 1.42995 0.975586 1.78195 0.975586C2.13395 0.975586 2.43262 1.10359 2.67795 1.35959C2.93395 1.60492 3.06195 1.90359 3.06195 2.25559C3.06195 2.60759 2.93395 2.91159 2.67795 3.16759C2.43262 3.41292 2.13395 3.53559 1.78195 3.53559ZM0.501953 4.71959C0.501953 4.63425 0.54462 4.59159 0.629953 4.59159H2.93395C3.01929 4.59159 3.06195 4.63425 3.06195 4.71959V12.8956C3.06195 12.9809 3.01929 13.0236 2.93395 13.0236H0.629953C0.54462 13.0236 0.501953 12.9809 0.501953 12.8956V4.71959Z" fill="#FDFDFD"/>
<path d="M5.11433 13.0236C5.029 13.0236 4.98633 12.9809 4.98633 12.8956V4.71959C4.98633 4.63425 5.029 4.59159 5.11433 4.59159H7.41833C7.50366 4.59159 7.54633 4.63425 7.54633 4.71959V5.69559C7.54633 5.74892 7.56233 5.78092 7.59433 5.79159C7.62633 5.80225 7.65833 5.78625 7.69033 5.74359C7.989 5.39159 8.34633 5.10359 8.76233 4.87959C9.18899 4.65559 9.64233 4.54359 10.1223 4.54359C11.2103 4.54359 12.0423 4.89559 12.6183 5.59959C13.205 6.29292 13.4983 7.21025 13.4983 8.35159V12.8956C13.4983 12.9809 13.4557 13.0236 13.3703 13.0236H11.0663C10.981 13.0236 10.9383 12.9809 10.9383 12.8956V8.35159C10.9383 7.74359 10.7943 7.29025 10.5063 6.99159C10.229 6.69292 9.82899 6.54359 9.30633 6.54359C8.85833 6.54359 8.47433 6.69825 8.15433 7.00759C7.83433 7.31692 7.63166 7.71159 7.54633 8.19159V12.8956C7.54633 12.9809 7.50366 13.0236 7.41833 13.0236H5.11433Z" fill="#FDFDFD"/>
</svg>
