<svg width="66" height="64" viewBox="0 0 66 64" fill="none" xmlns="http://www.w3.org/2000/svg">
<path d="M20.3689 20.6208L20.5065 20.4832L36.4497 24.6372L24.7434 36.5065L20.3689 20.6208Z" fill="#ECD5A3"/>
<path d="M8.51516 32.4745L19.3263 21.6634L23.3691 36.3447L8.51516 32.4745Z" fill="#ECD5A3"/>
<path d="M0 0L3.93594 14.6891L14.6891 3.93594L0 0Z" fill="#ECD5A3"/>
<path d="M15.8368 4.44925L4.82641 15.4597L19.5961 19.4172L19.7359 19.2753L19.7892 19.4689L19.9973 19.5247L15.9672 4.48421L15.8368 4.44925Z" fill="#ECD5A3"/>
<path d="M17.5265 4.99752L21.1685 18.5897L31.1187 8.63953L17.5265 4.99752Z" fill="#ECD5A3"/>
<path d="M24.9003 37.9853L13.8814 49.0042L28.9335 53.0374L24.9003 37.9853Z" fill="#ECD5A3"/>
<path d="M39.1447 24.4652L50.2506 13.3593L54.2351 28.2296L54.015 28.4497L39.1447 24.4652Z" fill="#ECD5A3"/>
<path d="M65.3762 17.0884L55.0752 27.3895L51.3048 13.318L65.3762 17.0884Z" fill="#ECD5A3"/>
<path d="M12.9909 48.4395L23.7617 37.6688L9.04855 33.7264L12.9909 48.4395Z" fill="#ECD5A3"/>
<path d="M40.0416 42.0309L26.0447 38.2805L29.7951 52.2774L40.0416 42.0309Z" fill="#ECD5A3"/>
<path d="M42.3891 39.461L38.6187 25.3895L52.6901 29.16L42.3891 39.461Z" fill="#ECD5A3"/>
<path d="M13.3553 49.9286L17.1258 64L27.4268 53.699L13.3553 49.9286Z" fill="#ECD5A3"/>
<path d="M8.48239 30.867L4.71196 16.7956L18.7834 20.566L8.48239 30.867Z" fill="#ECD5A3"/>
<path d="M34.297 9.13175L38.2543 23.9005L49.0657 13.089L34.297 9.13175Z" fill="#ECD5A3"/>
<path d="M32.7726 8.61969L36.9247 23.6976L21.7908 19.7544L32.7726 8.61969Z" fill="#ECD5A3"/>
<path d="M41.6214 41.0895L37.2664 25.2745L25.7477 36.9536L41.6214 41.0895Z" fill="#ECD5A3"/>
</svg>
